<svg width="30" height="30" fill="none" xmlns="http://www.w3.org/2000/svg"><g clip-path="url(#clip0_4001_231)"><path d="M15 30c8.284 0 15-6.716 15-15 0-8.284-6.716-15-15-15C6.716 0 0 6.716 0 15c0 8.284 6.716 15 15 15z" fill="#F0F0F0"/><path d="M29.873 13.043H16.957V.127a15.15 15.15 0 00-3.914 0v12.916H.127a15.15 15.15 0 000 3.913h12.916v12.917a15.147 15.147 0 003.913 0V16.957h12.917a15.146 15.146 0 000-3.914z" fill="#D80027"/></g><defs><clipPath id="clip0_4001_231"><path fill="#fff" d="M0 0h30v30H0z"/></clipPath></defs></svg>