<svg width="26" height="26" viewBox="0 0 26 26" fill="none" xmlns="http://www.w3.org/2000/svg">
<path d="M1.08262 8.95497C0.857409 8.9538 0.638042 8.88115 0.454486 8.74695C0.27093 8.61274 0.132137 8.42352 0.0570691 8.20514C-0.132487 7.62193 0.164809 7.01124 0.731858 6.78879C2.81131 6.03896 4.91749 5.45576 6.9694 5.06751C9.04885 4.70593 11.1008 4.5118 13.1527 4.5118C15.1778 4.5118 17.2306 4.70593 19.2282 5.095C21.2527 5.49347 23.2404 6.06961 25.1693 6.81712C25.7363 7.03873 26.0061 7.67776 25.7898 8.26096C25.7414 8.39686 25.6671 8.52146 25.5713 8.62745C25.4755 8.73344 25.3601 8.8187 25.2318 8.87821C25.1036 8.93773 24.965 8.97031 24.8244 8.97405C24.6837 8.97779 24.5437 8.95261 24.4127 8.89998C22.5998 8.19295 20.7292 7.65371 18.8232 7.28868C16.96 6.90043 15.0434 6.7338 13.1527 6.7338C11.236 6.7338 9.29187 6.92793 7.37444 7.26118C5.43027 7.62194 3.43182 8.17764 1.46092 8.87165C1.32564 8.92747 1.2179 8.95497 1.08262 8.95497Z" fill="white"/>
<path d="M1.21843 4.44317C0.993222 4.442 0.773855 4.36935 0.590299 4.23514C0.406743 4.10094 0.26795 3.91172 0.192882 3.69334C0.00332571 3.11013 0.300622 2.49944 0.867671 2.27699C2.94712 1.52716 5.05331 0.943954 7.10522 0.555708C9.18467 0.194123 11.2366 0 13.2885 0C15.3137 0 17.3664 0.194123 19.364 0.583202C21.3886 0.981665 23.3762 1.55781 25.3051 2.30531C25.8721 2.52693 26.1419 3.16595 25.9256 3.74916C25.8772 3.88506 25.8029 4.00965 25.7071 4.11565C25.6113 4.22164 25.4959 4.30689 25.3676 4.36641C25.2394 4.42593 25.1009 4.45851 24.9602 4.46225C24.8195 4.46599 24.6795 4.44081 24.5485 4.38818C22.7356 3.68114 20.865 3.1419 18.959 2.77687C17.0958 2.38863 15.1792 2.222 13.2885 2.222C11.3719 2.222 9.42769 2.41612 7.51025 2.74938C5.56608 3.11013 3.56764 3.66584 1.59673 4.35985C1.46145 4.41567 1.35371 4.44317 1.21843 4.44317Z" fill="white"/>
<path d="M17.2305 11.5591H8.61619C8.02241 11.5591 7.53637 11.0592 7.53637 10.4477C7.53637 9.837 8.02241 9.33711 8.61619 9.33711H17.2029C17.7975 9.33711 18.2836 9.837 18.2836 10.4477C18.2836 11.0592 17.8243 11.5591 17.2305 11.5591Z" fill="white"/>
<path d="M12.9372 16.3629C11.4515 16.3629 9.93995 16.2521 8.48182 16.0022C7.88723 15.8914 7.48219 15.3357 7.59074 14.725C7.69848 14.1134 8.2388 13.6969 8.83258 13.8085C11.5601 14.2526 14.3411 14.2526 17.122 13.8085C17.7166 13.7252 18.2561 14.1134 18.3647 14.725C18.4457 15.3357 18.0674 15.8914 17.4736 16.0022C15.9345 16.2246 14.4221 16.3629 12.9372 16.3629Z" fill="white"/>
<path d="M12.9372 21.0286C11.4248 21.0286 9.8857 20.8345 8.34657 20.4179C7.77952 20.2513 7.42876 19.6681 7.56323 19.0574C7.69851 18.4742 8.29229 18.1126 8.88688 18.2518C10.2365 18.6125 11.5868 18.7791 12.9372 18.7791C14.2868 18.7791 15.6372 18.585 16.9876 18.2518C17.5546 18.0851 18.1484 18.4459 18.3104 19.0574C18.378 19.3444 18.334 19.6473 18.1876 19.9014C18.0413 20.1556 17.8043 20.3409 17.5271 20.4179C15.988 20.807 14.4488 21.0286 12.9372 21.0286Z" fill="white"/>
<path d="M12.9907 26C11.3981 26 9.77791 25.5834 8.15777 24.7778C8.02969 24.7126 7.91543 24.622 7.82158 24.5112C7.72772 24.4004 7.65614 24.2715 7.61095 24.1321C7.56576 23.9927 7.54787 23.8454 7.5583 23.6989C7.56873 23.5523 7.60728 23.4093 7.67173 23.2781C7.94148 22.7232 8.58954 22.5008 9.10231 22.7782C10.3984 23.4447 11.6945 23.778 12.9372 23.778H12.9639C14.2058 23.778 15.5019 23.4447 16.7445 22.8066C17.284 22.5283 17.9321 22.7507 18.1751 23.3064C18.2395 23.4376 18.2781 23.5806 18.2885 23.7272C18.299 23.8738 18.2811 24.021 18.2359 24.1604C18.1907 24.2998 18.1191 24.4287 18.0253 24.5395C17.9314 24.6503 17.8171 24.7409 17.6891 24.8061C16.1499 25.6109 14.5841 26 12.9907 26Z" fill="white"/>
</svg>
