<svg width="159" height="40" viewBox="0 0 159 40" fill="none" xmlns="http://www.w3.org/2000/svg">
<path d="M8.83246 15.1584C8.55528 15.157 8.28528 15.07 8.05937 14.9094C7.83345 14.7487 7.66263 14.5223 7.57024 14.2609C7.33694 13.5628 7.70284 12.8318 8.40075 12.5656C10.9601 11.6681 13.5523 10.97 16.0777 10.5053C18.6371 10.0725 21.1625 9.84017 23.6879 9.84017C26.1805 9.84017 28.7069 10.0725 31.1655 10.5382C33.6573 11.0152 36.1036 11.7048 38.4776 12.5995C39.1755 12.8648 39.5075 13.6296 39.2413 14.3277C39.1818 14.4903 39.0904 14.6395 38.9725 14.7663C38.8545 14.8932 38.7125 14.9953 38.5546 15.0665C38.3968 15.1377 38.2263 15.1767 38.0531 15.1812C37.88 15.1857 37.7077 15.1555 37.5464 15.0926C35.3152 14.2463 33.0129 13.6008 30.667 13.1639C28.3739 12.6992 26.015 12.4998 23.6879 12.4998C21.329 12.4998 18.9362 12.7321 16.5763 13.131C14.1834 13.5628 11.7238 14.228 9.29806 15.0586C9.13156 15.1255 8.99896 15.1584 8.83246 15.1584Z" fill="white"/>
<path d="M8.99961 9.75802C8.72243 9.75662 8.45244 9.66966 8.22652 9.50903C8.00061 9.34839 7.82979 9.1219 7.73739 8.86051C7.50409 8.16246 7.87 7.43149 8.56791 7.16523C11.1272 6.26773 13.7195 5.56967 16.2449 5.10497C18.8042 4.67217 21.3297 4.43982 23.8551 4.43982C26.3476 4.43982 28.8741 4.67217 31.3327 5.13788C33.8244 5.61481 36.2707 6.30442 38.6448 7.19914C39.3427 7.4644 39.6747 8.22927 39.4085 8.92733C39.3489 9.08999 39.2575 9.23913 39.1396 9.366C39.0217 9.49286 38.8796 9.59491 38.7218 9.66615C38.5639 9.73738 38.3934 9.77638 38.2203 9.78086C38.0472 9.78533 37.8749 9.75519 37.7136 9.6922C35.4824 8.84592 33.1801 8.20048 30.8342 7.76357C28.5411 7.29886 26.1821 7.09942 23.8551 7.09942C21.4962 7.09942 19.1033 7.33177 16.7434 7.73066C14.3506 8.16246 11.8909 8.82761 9.46522 9.65829C9.29872 9.72511 9.16611 9.75802 8.99961 9.75802Z" fill="white"/>
<path d="M28.7068 18.2754H18.1046C17.3738 18.2754 16.7756 17.677 16.7756 16.9451C16.7756 16.2141 17.3738 15.6158 18.1046 15.6158H28.6729C29.4047 15.6158 30.0029 16.2141 30.0029 16.9451C30.0029 17.677 29.4376 18.2754 28.7068 18.2754Z" fill="white"/>
<path d="M23.4228 24.0253C21.5942 24.0253 19.7338 23.8926 17.9392 23.5935C17.2074 23.4608 16.7089 22.7957 16.8425 22.0647C16.9751 21.3327 17.6401 20.8341 18.3709 20.9678C21.7278 21.4993 25.1506 21.4993 28.5733 20.9678C29.3051 20.868 29.9691 21.3327 30.1027 22.0647C30.2024 22.7957 29.7368 23.4608 29.006 23.5935C27.1117 23.8597 25.2503 24.0253 23.4228 24.0253Z" fill="white"/>
<path d="M23.4228 29.6098C21.5614 29.6098 19.667 29.3774 17.7727 28.8788C17.0748 28.6794 16.6431 27.9813 16.8086 27.2504C16.9751 26.5523 17.7059 26.1195 18.4377 26.286C20.0988 26.7178 21.7608 26.9173 23.4228 26.9173C25.0838 26.9173 26.7458 26.6849 28.4079 26.286C29.1058 26.0866 29.8366 26.5184 30.036 27.2504C30.1192 27.5939 30.0649 27.9564 29.8848 28.2606C29.7048 28.5648 29.4131 28.7866 29.0719 28.8788C27.1775 29.3445 25.2832 29.6098 23.4228 29.6098Z" fill="white"/>
<path d="M23.4885 35.5602C21.5284 35.5602 19.5344 35.0616 17.5404 34.0973C17.3827 34.0193 17.2421 33.9108 17.1266 33.7782C17.0111 33.6455 16.923 33.4913 16.8673 33.3245C16.8117 33.1576 16.7897 32.9813 16.8025 32.8059C16.8154 32.6305 16.8628 32.4593 16.9421 32.3023C17.2742 31.6381 18.0718 31.3719 18.7029 31.704C20.2981 32.5017 21.8933 32.9006 23.4227 32.9006H23.4556C24.984 32.9006 26.5793 32.5017 28.1087 31.7379C28.7727 31.4048 29.5703 31.671 29.8694 32.3362C29.9487 32.4932 29.9962 32.6644 30.009 32.8398C30.0218 33.0152 29.9998 33.1915 29.9442 33.3584C29.8886 33.5252 29.8005 33.6795 29.685 33.8121C29.5695 33.9447 29.4288 34.0532 29.2712 34.1312C27.3769 35.0945 25.4497 35.5602 23.4885 35.5602Z" fill="white"/>
<path d="M62.5119 12.644V15.13H58.4199V28H55.3399V15.13H51.2479V12.644H62.5119ZM76.0892 21.642C76.0892 22.082 76.0599 22.478 76.0012 22.83H67.0912C67.1645 23.71 67.4725 24.3993 68.0152 24.898C68.5579 25.3967 69.2252 25.646 70.0172 25.646C71.1612 25.646 71.9752 25.1547 72.4592 24.172H75.7812C75.4292 25.3453 74.7545 26.3133 73.7572 27.076C72.7599 27.824 71.5352 28.198 70.0832 28.198C68.9099 28.198 67.8539 27.9413 66.9152 27.428C65.9912 26.9 65.2652 26.1593 64.7372 25.206C64.2239 24.2527 63.9672 23.1527 63.9672 21.906C63.9672 20.6447 64.2239 19.5373 64.7372 18.584C65.2505 17.6307 65.9692 16.8973 66.8932 16.384C67.8172 15.8707 68.8805 15.614 70.0832 15.614C71.2419 15.614 72.2759 15.8633 73.1852 16.362C74.1092 16.8607 74.8205 17.572 75.3192 18.496C75.8325 19.4053 76.0892 20.454 76.0892 21.642ZM72.8992 20.762C72.8845 19.97 72.5985 19.3393 72.0412 18.87C71.4839 18.386 70.8019 18.144 69.9952 18.144C69.2325 18.144 68.5872 18.3787 68.0592 18.848C67.5459 19.3027 67.2305 19.9407 67.1132 20.762H72.8992ZM83.0013 28.198C82.004 28.198 81.1093 28.022 80.3173 27.67C79.5253 27.3033 78.8947 26.812 78.4253 26.196C77.9707 25.58 77.7213 24.898 77.6773 24.15H80.7793C80.838 24.6193 81.0653 25.008 81.4613 25.316C81.872 25.624 82.378 25.778 82.9793 25.778C83.566 25.778 84.0207 25.6607 84.3433 25.426C84.6807 25.1913 84.8493 24.8907 84.8493 24.524C84.8493 24.128 84.644 23.8347 84.2333 23.644C83.8373 23.4387 83.1993 23.2187 82.3193 22.984C81.41 22.764 80.662 22.5367 80.0753 22.302C79.5033 22.0673 79.0047 21.708 78.5793 21.224C78.1687 20.74 77.9633 20.0873 77.9633 19.266C77.9633 18.5913 78.154 17.9753 78.5353 17.418C78.9313 16.8607 79.4887 16.4207 80.2073 16.098C80.9407 15.7753 81.7987 15.614 82.7813 15.614C84.2333 15.614 85.392 15.9807 86.2573 16.714C87.1227 17.4327 87.5993 18.408 87.6873 19.64H84.7393C84.6953 19.156 84.49 18.7747 84.1233 18.496C83.7713 18.2027 83.2947 18.056 82.6933 18.056C82.136 18.056 81.7033 18.1587 81.3953 18.364C81.102 18.5693 80.9553 18.8553 80.9553 19.222C80.9553 19.6327 81.1607 19.948 81.5713 20.168C81.982 20.3733 82.62 20.586 83.4853 20.806C84.3653 21.026 85.0913 21.2533 85.6633 21.488C86.2353 21.7227 86.7267 22.0893 87.1373 22.588C87.5627 23.072 87.7827 23.7173 87.7973 24.524C87.7973 25.228 87.5993 25.8587 87.2033 26.416C86.822 26.9733 86.2647 27.4133 85.5313 27.736C84.8127 28.044 83.9693 28.198 83.0013 28.198ZM93.4056 11.72V28H90.3256V11.72H93.4056ZM95.6567 21.862C95.6567 20.63 95.8987 19.5373 96.3827 18.584C96.8813 17.6307 97.5487 16.8973 98.3847 16.384C99.2353 15.8707 100.181 15.614 101.223 15.614C102.132 15.614 102.924 15.7973 103.599 16.164C104.288 16.5307 104.838 16.9927 105.249 17.55V15.812H108.351V28H105.249V26.218C104.853 26.79 104.303 27.2667 103.599 27.648C102.909 28.0147 102.11 28.198 101.201 28.198C100.174 28.198 99.2353 27.934 98.3847 27.406C97.5487 26.878 96.8813 26.1373 96.3827 25.184C95.8987 24.216 95.6567 23.1087 95.6567 21.862ZM105.249 21.906C105.249 21.158 105.102 20.52 104.809 19.992C104.515 19.4493 104.119 19.0387 103.621 18.76C103.122 18.4667 102.587 18.32 102.015 18.32C101.443 18.32 100.915 18.4593 100.431 18.738C99.9467 19.0167 99.5507 19.4273 99.2427 19.97C98.9493 20.498 98.8027 21.1287 98.8027 21.862C98.8027 22.5953 98.9493 23.2407 99.2427 23.798C99.5507 24.3407 99.9467 24.7587 100.431 25.052C100.929 25.3453 101.457 25.492 102.015 25.492C102.587 25.492 103.122 25.3527 103.621 25.074C104.119 24.7807 104.515 24.37 104.809 23.842C105.102 23.2993 105.249 22.654 105.249 21.906ZM122.557 17.396C122.557 18.2173 122.359 18.9873 121.963 19.706C121.581 20.4247 120.973 21.004 120.137 21.444C119.315 21.884 118.274 22.104 117.013 22.104H114.439V28H111.359V12.644H117.013C118.201 12.644 119.213 12.8493 120.049 13.26C120.885 13.6707 121.508 14.2353 121.919 14.954C122.344 15.6727 122.557 16.4867 122.557 17.396ZM116.881 19.618C117.731 19.618 118.362 19.4273 118.773 19.046C119.183 18.65 119.389 18.1 119.389 17.396C119.389 15.9 118.553 15.152 116.881 15.152H114.439V19.618H116.881ZM123.952 21.862C123.952 20.63 124.194 19.5373 124.678 18.584C125.176 17.6307 125.844 16.8973 126.68 16.384C127.53 15.8707 128.476 15.614 129.518 15.614C130.427 15.614 131.219 15.7973 131.894 16.164C132.583 16.5307 133.133 16.9927 133.544 17.55V15.812H136.646V28H133.544V26.218C133.148 26.79 132.598 27.2667 131.894 27.648C131.204 28.0147 130.405 28.198 129.496 28.198C128.469 28.198 127.53 27.934 126.68 27.406C125.844 26.878 125.176 26.1373 124.678 25.184C124.194 24.216 123.952 23.1087 123.952 21.862ZM133.544 21.906C133.544 21.158 133.397 20.52 133.104 19.992C132.81 19.4493 132.414 19.0387 131.916 18.76C131.417 18.4667 130.882 18.32 130.31 18.32C129.738 18.32 129.21 18.4593 128.726 18.738C128.242 19.0167 127.846 19.4273 127.538 19.97C127.244 20.498 127.098 21.1287 127.098 21.862C127.098 22.5953 127.244 23.2407 127.538 23.798C127.846 24.3407 128.242 24.7587 128.726 25.052C129.224 25.3453 129.752 25.492 130.31 25.492C130.882 25.492 131.417 25.3527 131.916 25.074C132.414 24.7807 132.81 24.37 133.104 23.842C133.397 23.2993 133.544 22.654 133.544 21.906ZM151.314 15.812L143.768 33.764H140.49L143.13 27.692L138.246 15.812H141.7L144.846 24.326L148.036 15.812H151.314Z" fill="white"/>
</svg>
