<svg width="26" height="26" fill="none" xmlns="http://www.w3.org/2000/svg"><path d="M1.083 8.955a1.073 1.073 0 01-.629-.208 1.122 1.122 0 01-.397-.542A1.136 1.136 0 01.732 6.79a40.957 40.957 0 016.237-1.721 35.985 35.985 0 016.184-.556c2.025 0 4.078.194 6.075.583 2.025.398 4.012.975 5.941 1.722.567.222.837.86.62 1.444a1.08 1.08 0 01-.218.366 1.058 1.058 0 01-.747.347 1.03 1.03 0 01-.411-.074 31.893 31.893 0 00-5.59-1.611c-1.863-.389-3.78-.555-5.67-.555-1.917 0-3.861.194-5.779.527-1.944.36-3.942.917-5.913 1.61a.927.927 0 01-.378.084zm.135-4.512a1.073 1.073 0 01-.628-.208 1.122 1.122 0 01-.397-.542 1.136 1.136 0 01.675-1.416A40.957 40.957 0 017.105.556 35.985 35.985 0 0113.29 0c2.025 0 4.077.194 6.075.583a35.4 35.4 0 015.941 1.722c.567.222.837.86.62 1.444a1.058 1.058 0 01-.965.713 1.03 1.03 0 01-.412-.074 31.892 31.892 0 00-5.589-1.611c-1.863-.388-3.78-.555-5.67-.555-1.917 0-3.861.194-5.779.527-1.944.361-3.942.917-5.913 1.61a.927.927 0 01-.379.084zM17.23 11.56H8.616c-.594 0-1.08-.5-1.08-1.112 0-.611.486-1.11 1.08-1.11h8.587c.595 0 1.08.499 1.08 1.11 0 .611-.459 1.111-1.053 1.111zm-4.293 4.803a26.53 26.53 0 01-4.455-.36 1.1 1.1 0 01-.891-1.278c.107-.612.648-1.028 1.242-.916 2.727.444 5.508.444 8.289 0a1.096 1.096 0 011.243.916c.08.61-.298 1.166-.891 1.277-1.54.223-3.052.36-4.537.36zm0 4.666c-1.512 0-3.051-.195-4.59-.611a1.146 1.146 0 01-.784-1.36c.136-.584.73-.945 1.324-.806 1.35.36 2.7.527 4.05.527 1.35 0 2.7-.194 4.05-.527.568-.167 1.161.194 1.323.805.068.287.024.59-.122.844-.147.255-.384.44-.66.517-1.54.389-3.08.61-4.59.61zM12.99 26c-1.592 0-3.212-.417-4.832-1.222a1.087 1.087 0 01-.336-.267 1.121 1.121 0 01-.264-.812c.01-.147.05-.29.114-.42.27-.556.918-.778 1.43-.5 1.296.666 2.592.999 3.835.999h.027c1.242 0 2.538-.333 3.78-.971a1.03 1.03 0 011.431.5 1.138 1.138 0 01-.15 1.233c-.094.11-.208.2-.336.266-1.54.805-3.105 1.194-4.698 1.194z" fill="#fff"/></svg>