<svg width="159" height="40" fill="none" xmlns="http://www.w3.org/2000/svg"><path d="M8.832 15.158a1.346 1.346 0 01-1.262-.897c-.233-.698.133-1.43.83-1.695a51.533 51.533 0 017.678-2.06c2.56-.434 5.085-.666 7.61-.666 2.492 0 5.019.232 7.478.698a44.41 44.41 0 017.312 2.062c.697.265 1.03 1.03.763 1.728a1.3 1.3 0 01-1.695.765 40.1 40.1 0 00-6.879-1.93c-2.293-.464-4.652-.663-6.98-.663-2.358 0-4.75.232-7.11.631-2.394.432-4.853 1.097-7.279 1.928-.166.067-.299.1-.466.1zM9 9.758a1.346 1.346 0 01-1.263-.897c-.233-.699.133-1.43.83-1.696a51.531 51.531 0 017.678-2.06c2.56-.433 5.085-.665 7.61-.665 2.493 0 5.02.232 7.478.698a44.407 44.407 0 017.312 2.061c.698.265 1.03 1.03.763 1.728a1.303 1.303 0 01-1.694.765 40.103 40.103 0 00-6.88-1.928c-2.293-.465-4.652-.665-6.979-.665-2.359 0-4.752.233-7.112.632-2.392.431-4.852 1.097-7.278 1.927-.166.067-.299.1-.465.1zm19.707 8.517H18.105c-.731 0-1.33-.598-1.33-1.33 0-.73.599-1.33 1.33-1.33h10.568c.732 0 1.33.6 1.33 1.33 0 .732-.565 1.33-1.296 1.33zm-5.284 5.75a33.58 33.58 0 01-5.484-.431c-.732-.133-1.23-.798-1.096-1.53.132-.731.797-1.23 1.528-1.096 3.357.531 6.78.531 10.202 0 .732-.1 1.396.365 1.53 1.097.1.73-.366 1.396-1.097 1.528-1.894.267-3.756.432-5.583.432zm0 5.585c-1.862 0-3.756-.233-5.65-.731a1.368 1.368 0 01-.964-1.629c.166-.698.897-1.13 1.629-.964 1.66.432 3.323.631 4.985.631 1.66 0 3.323-.232 4.985-.631.698-.2 1.429.232 1.628.964a1.356 1.356 0 01-.964 1.629c-1.895.465-3.789.73-5.65.73zm.065 5.95c-1.96 0-3.954-.498-5.948-1.463a1.332 1.332 0 01-.598-1.795c.332-.664 1.13-.93 1.76-.598 1.596.798 3.191 1.197 4.72 1.197h.034c1.528 0 3.123-.4 4.653-1.163.664-.333 1.461-.067 1.76.598a1.332 1.332 0 01-.598 1.795c-1.894.963-3.821 1.43-5.783 1.43zm39.024-22.916v2.486H58.42V28h-3.08V15.13h-4.092v-2.486h11.264zm13.577 8.998c0 .44-.03.836-.088 1.188h-8.91c.074.88.382 1.57.924 2.068.543.499 1.21.748 2.002.748 1.144 0 1.958-.491 2.442-1.474h3.322c-.352 1.173-1.027 2.141-2.024 2.904-.997.748-2.222 1.122-3.674 1.122-1.173 0-2.23-.257-3.168-.77a5.668 5.668 0 01-2.178-2.222c-.513-.953-.77-2.053-.77-3.3 0-1.261.257-2.369.77-3.322a5.372 5.372 0 012.156-2.2c.924-.513 1.987-.77 3.19-.77 1.159 0 2.193.25 3.102.748a5.16 5.16 0 012.134 2.134c.513.91.77 1.958.77 3.146zm-3.19-.88c-.014-.792-.3-1.423-.858-1.892-.557-.484-1.24-.726-2.046-.726-.763 0-1.408.235-1.936.704-.513.455-.828 1.093-.946 1.914H72.9zm10.102 7.436c-.997 0-1.892-.176-2.684-.528-.792-.367-1.422-.858-1.892-1.474a3.751 3.751 0 01-.748-2.046h3.102c.059.47.286.858.682 1.166.411.308.917.462 1.518.462.587 0 1.042-.117 1.364-.352.338-.235.506-.535.506-.902 0-.396-.205-.69-.616-.88-.396-.205-1.034-.425-1.914-.66-.909-.22-1.657-.447-2.244-.682a3.99 3.99 0 01-1.496-1.078c-.41-.484-.616-1.137-.616-1.958 0-.675.191-1.29.572-1.848.396-.557.954-.997 1.672-1.32.734-.323 1.592-.484 2.574-.484 1.452 0 2.611.367 3.476 1.1.866.719 1.342 1.694 1.43 2.926H84.74c-.044-.484-.249-.865-.616-1.144-.352-.293-.828-.44-1.43-.44-.557 0-.99.103-1.298.308a.989.989 0 00-.44.858c0 .41.206.726.616.946.411.205 1.049.418 1.914.638.88.22 1.606.447 2.178.682a3.717 3.717 0 011.474 1.1c.426.484.646 1.13.66 1.936 0 .704-.198 1.335-.594 1.892-.381.557-.938.997-1.672 1.32-.718.308-1.562.462-2.53.462zM93.406 11.72V28h-3.08V11.72h3.08zm2.25 10.142c0-1.232.243-2.325.727-3.278.498-.953 1.166-1.687 2.002-2.2.85-.513 1.796-.77 2.838-.77.909 0 1.701.183 2.376.55.689.367 1.239.829 1.65 1.386v-1.738h3.102V28h-3.102v-1.782c-.396.572-.946 1.049-1.65 1.43-.69.367-1.489.55-2.398.55a5.235 5.235 0 01-2.816-.792c-.836-.528-1.504-1.269-2.002-2.222-.484-.968-.726-2.075-.726-3.322zm9.593.044c0-.748-.147-1.386-.44-1.914a3.018 3.018 0 00-1.188-1.232 3.115 3.115 0 00-1.606-.44c-.572 0-1.1.14-1.584.418-.484.279-.88.69-1.188 1.232-.294.528-.44 1.159-.44 1.892 0 .733.146 1.379.44 1.936.308.543.704.96 1.188 1.254.498.293 1.026.44 1.584.44a3.24 3.24 0 001.606-.418 3.21 3.21 0 001.188-1.232c.293-.543.44-1.188.44-1.936zm17.308-4.51c0 .821-.198 1.591-.594 2.31-.382.719-.99 1.298-1.826 1.738-.822.44-1.863.66-3.124.66h-2.574V28h-3.08V12.644h5.654c1.188 0 2.2.205 3.036.616.836.41 1.459.975 1.87 1.694.425.719.638 1.533.638 2.442zm-5.676 2.222c.85 0 1.481-.19 1.892-.572.41-.396.616-.946.616-1.65 0-1.496-.836-2.244-2.508-2.244h-2.442v4.466h2.442zm7.071 2.244c0-1.232.242-2.325.726-3.278.498-.953 1.166-1.687 2.002-2.2.85-.513 1.796-.77 2.838-.77.909 0 1.701.183 2.376.55.689.367 1.239.829 1.65 1.386v-1.738h3.102V28h-3.102v-1.782c-.396.572-.946 1.049-1.65 1.43-.69.367-1.489.55-2.398.55a5.232 5.232 0 01-2.816-.792c-.836-.528-1.504-1.269-2.002-2.222-.484-.968-.726-2.075-.726-3.322zm9.592.044c0-.748-.147-1.386-.44-1.914a3.018 3.018 0 00-1.188-1.232 3.115 3.115 0 00-1.606-.44c-.572 0-1.1.14-1.584.418-.484.279-.88.69-1.188 1.232-.294.528-.44 1.159-.44 1.892 0 .733.146 1.379.44 1.936.308.543.704.96 1.188 1.254.498.293 1.026.44 1.584.44a3.24 3.24 0 001.606-.418 3.21 3.21 0 001.188-1.232c.293-.543.44-1.188.44-1.936zm17.77-6.094l-7.546 17.952h-3.278l2.64-6.072-4.884-11.88h3.454l3.146 8.514 3.19-8.514h3.278z" fill="#fff"/></svg>