<svg width="80" height="78" fill="none" xmlns="http://www.w3.org/2000/svg"><path d="M3.855 26.985a3.317 3.317 0 01-3.11-2.212c-.576-1.72.326-3.521 2.046-4.177 6.307-2.212 12.695-3.932 18.918-5.078 6.307-1.066 12.53-1.639 18.754-1.639A99.46 99.46 0 0158.89 15.6a109.429 109.429 0 0118.019 5.08c1.72.654 2.538 2.539 1.882 4.259a3.207 3.207 0 01-4.177 1.885 98.823 98.823 0 00-16.953-4.753c-5.65-1.145-11.464-1.637-17.198-1.637-5.813 0-11.71.573-17.525 1.556-5.897 1.064-11.958 2.703-17.936 4.75-.41.165-.737.246-1.147.246z" fill="url(#paint0_linear_671_997)"/><path d="M4.267 13.677a3.316 3.316 0 01-3.11-2.212c-.576-1.72.326-3.521 2.046-4.178C9.51 5.076 15.898 3.356 22.12 2.21 28.428 1.144 34.651.571 40.875.571c6.142 0 12.368.573 18.427 1.72a109.426 109.426 0 0118.019 5.08c1.72.654 2.538 2.539 1.882 4.259a3.208 3.208 0 01-4.177 1.885 98.821 98.821 0 00-16.953-4.753c-5.65-1.145-11.464-1.637-17.198-1.637-5.813 0-11.71.573-17.525 1.556-5.897 1.064-11.958 2.703-17.936 4.75-.41.165-.737.246-1.147.246z" fill="url(#paint1_linear_671_997)"/><path d="M52.83 34.666H26.705a3.286 3.286 0 01-3.275-3.278 3.286 3.286 0 013.275-3.276h26.043a3.286 3.286 0 013.278 3.276c0 1.804-1.393 3.278-3.194 3.278z" fill="url(#paint2_linear_671_997)"/><path d="M39.81 48.835c-4.507 0-9.091-.326-13.514-1.064-1.803-.327-3.031-1.966-2.702-3.767.327-1.804 1.965-3.032 3.766-2.703 8.273 1.31 16.707 1.31 25.142 0 1.803-.246 3.44.9 3.769 2.703.246 1.801-.902 3.44-2.703 3.767-4.668.657-9.255 1.064-13.758 1.064z" fill="url(#paint3_linear_671_997)"/><path d="M39.81 62.597a54.6 54.6 0 01-13.924-1.801 3.37 3.37 0 01-2.376-4.013c.41-1.72 2.212-2.787 4.015-2.376a48.596 48.596 0 0012.285 1.555c4.093 0 8.188-.572 12.284-1.555 1.72-.492 3.521.572 4.012 2.376a3.343 3.343 0 01-2.376 4.013c-4.668 1.148-9.336 1.801-13.92 1.801z" fill="url(#paint4_linear_671_997)"/><path d="M39.972 77.26c-4.83 0-9.745-1.228-14.658-3.604a3.282 3.282 0 01-1.475-4.424c.819-1.636 2.784-2.292 4.34-1.474 3.93 1.966 7.862 2.949 11.63 2.949h.082c3.766 0 7.697-.983 11.466-2.865 1.636-.821 3.602-.165 4.339 1.474a3.282 3.282 0 01-1.474 4.423c-4.668 2.374-9.418 3.522-14.25 3.522z" fill="url(#paint5_linear_671_997)"/><defs><linearGradient id="paint0_linear_671_997" x1="12.893" y1="65.714" x2="66.903" y2="10.177" gradientUnits="userSpaceOnUse"><stop stop-color="#D1C9B2"/><stop offset=".577" stop-color="#947537"/><stop offset=".747" stop-color="#603A29"/><stop offset="1" stop-color="#131315"/></linearGradient><linearGradient id="paint1_linear_671_997" x1="12.893" y1="65.714" x2="66.903" y2="10.177" gradientUnits="userSpaceOnUse"><stop stop-color="#D1C9B2"/><stop offset=".577" stop-color="#947537"/><stop offset=".747" stop-color="#603A29"/><stop offset="1" stop-color="#131315"/></linearGradient><linearGradient id="paint2_linear_671_997" x1="12.893" y1="65.714" x2="66.903" y2="10.177" gradientUnits="userSpaceOnUse"><stop stop-color="#D1C9B2"/><stop offset=".577" stop-color="#947537"/><stop offset=".747" stop-color="#603A29"/><stop offset="1" stop-color="#131315"/></linearGradient><linearGradient id="paint3_linear_671_997" x1="12.893" y1="65.714" x2="66.903" y2="10.177" gradientUnits="userSpaceOnUse"><stop stop-color="#D1C9B2"/><stop offset=".577" stop-color="#947537"/><stop offset=".747" stop-color="#603A29"/><stop offset="1" stop-color="#131315"/></linearGradient><linearGradient id="paint4_linear_671_997" x1="12.893" y1="65.714" x2="66.903" y2="10.177" gradientUnits="userSpaceOnUse"><stop stop-color="#D1C9B2"/><stop offset=".577" stop-color="#947537"/><stop offset=".747" stop-color="#603A29"/><stop offset="1" stop-color="#131315"/></linearGradient><linearGradient id="paint5_linear_671_997" x1="12.893" y1="65.714" x2="66.903" y2="10.177" gradientUnits="userSpaceOnUse"><stop stop-color="#D1C9B2"/><stop offset=".577" stop-color="#947537"/><stop offset=".747" stop-color="#603A29"/><stop offset="1" stop-color="#131315"/></linearGradient></defs></svg>